<svg xmlns="http://www.w3.org/2000/svg" version="1.1" xmlns:xlink="http://www.w3.org/1999/xlink" xmlns:svgjs="http://svgjs.dev/svgjs" width="2560" height="1440" preserveAspectRatio="none" viewBox="0 0 2560 1440"><g mask="url(&quot;#SvgjsMask1140&quot;)" fill="none"><path d="M2688 1440L0 1440 L0 1206.78Q61.55 1140.33, 128 1201.88Q251.19 1111.73, 341.3333333333333 1234.92Q407.23 1087.48, 554.6666666666666 1153.38Q633.35 1104.07, 682.6666666666666 1182.75Q798.27 1085.02, 896 1200.62Q966.3 1142.92, 1024 1213.22Q1116.76 1092.65, 1237.3333333333333 1185.41Q1333.41 1153.49, 1365.3333333333333 1249.56Q1449.41 1120.31, 1578.6666666666665 1204.39Q1670.98 1083.37, 1791.9999999999998 1175.69Q1881.05 1136.74, 1919.9999999999998 1225.79Q2013.94 1106.4, 2133.333333333333 1200.34Q2219.8 1073.47, 2346.6666666666665 1159.94Q2466.57 1066.51, 2560 1186.41Q2640.35 1138.76, 2688 1219.12z" fill="rgba(17, 26, 59, 1)"></path><path d="M2730.6666666666665 1440L0 1440 L0 1278.78Q78.9 1229.68, 128 1308.59Q206.08 1173.34, 341.3333333333333 1251.42Q397.38 1179.47, 469.3333333333333 1235.51Q575.97 1214.14, 597.3333333333333 1320.78Q694.66 1204.78, 810.6666666666665 1302.11Q887.4 1165.51, 1023.9999999999998 1242.24Q1104.8 1195.05, 1151.9999999999998 1275.85Q1271.34 1181.86, 1365.333333333333 1301.2Q1465.04 1187.58, 1578.6666666666663 1287.29Q1636.13 1216.76, 1706.6666666666663 1274.22Q1798.76 1152.98, 1919.9999999999995 1245.07Q1992.98 1190.05, 2047.9999999999995 1263.03Q2182.3 1183.99, 2261.333333333333 1318.29Q2312.75 1241.7, 2389.333333333333 1293.12Q2436.05 1211.84, 2517.333333333333 1258.56Q2648.7 1176.6, 2730.6666666666665 1307.97z" fill="#25467d"></path><path d="M2688 1440L0 1440 L0 1327.33Q95.2 1294.53, 128 1389.73Q227.45 1275.85, 341.3333333333333 1375.3Q441.64 1262.27, 554.6666666666666 1362.58Q628.85 1223.43, 768 1297.62Q869.72 1271.34, 896 1373.05Q987.71 1251.43, 1109.3333333333333 1343.14Q1154.03 1259.84, 1237.3333333333333 1304.53Q1379.23 1233.09, 1450.6666666666665 1374.99Q1563.4 1274.39, 1663.9999999999998 1387.13Q1698.8 1293.93, 1791.9999999999998 1328.74Q1873.71 1282.45, 1919.9999999999998 1364.16Q2041.64 1272.47, 2133.333333333333 1394.11Q2234.27 1281.71, 2346.6666666666665 1382.64Q2447.93 1270.57, 2560 1371.83Q2612.3 1296.13, 2688 1348.42z" fill="rgba(206, 116, 255, 1)"></path><path d="M2602.6666666666665 1440L0 1440 L0 1459.22Q43.07 1374.29, 128 1417.36Q185.92 1347.28, 256 1405.19Q337.7 1358.89, 384 1440.59Q502.07 1345.32, 597.3333333333333 1463.39Q628 1366.06, 725.3333333333333 1396.72Q854.56 1312.61, 938.6666666666665 1441.84Q1012.74 1302.58, 1151.9999999999998 1376.66Q1266.28 1277.6, 1365.333333333333 1391.88Q1489.99 1303.21, 1578.6666666666663 1427.87Q1654.83 1376.03, 1706.6666666666663 1452.2Q1781.15 1313.35, 1919.9999999999995 1387.83Q2049.96 1304.45, 2133.333333333333 1434.41Q2204.04 1377.12, 2261.333333333333 1447.83Q2287.18 1345.68, 2389.333333333333 1371.53Q2509.77 1278.63, 2602.6666666666665 1399.07z" fill="rgba(255, 101, 150, 1)"></path></g><defs><mask id="SvgjsMask1140"><rect width="2560" height="1440" fill="#ffffff"></rect></mask></defs></svg>